<?xml version="1.0" standalone="no"?>
<!DOCTYPE svg PUBLIC "-//W3C//DTD SVG 20010904//EN"
 "http://www.w3.org/TR/2001/REC-SVG-20010904/DTD/svg10.dtd">
<svg version="1.0" xmlns="http://www.w3.org/2000/svg"
 width="1000.000000pt" height="1000.000000pt" viewBox="0 0 1000.000000 1000.000000"
 preserveAspectRatio="xMidYMid meet">
<metadata>
Created by potrace 1.11, written by Peter Selinger 2001-2013
</metadata>
<g transform="translate(0.000000,1000.000000) scale(0.100000,-0.100000)"
fill="#000000" stroke="none">
<path d="M4540 9875 c-490 -48 -897 -145 -1340 -320 -712 -281 -1328 -709
-1845 -1281 -506 -560 -879 -1246 -1081 -1987 -115 -421 -164 -802 -164 -1282
0 -662 100 -1198 335 -1795 316 -802 821 -1485 1505 -2036 640 -515 1489 -886
2300 -1004 476 -69 1014 -69 1490 0 447 65 908 207 1345 412 1017 479 1845
1304 2330 2323 155 326 310 790 374 1115 71 360 100 652 100 1005 0 396 -38
725 -123 1075 -269 1108 -852 2032 -1726 2736 -640 515 -1489 886 -2300 1004
-264 38 -451 50 -764 49 -166 -1 -362 -7 -436 -14z m-42 -1929 c406 -46 739
-131 989 -252 113 -54 113 -54 102 -81 -6 -16 -83 -224 -171 -463 -88 -239
-162 -437 -164 -439 -2 -3 -46 16 -97 41 -413 205 -1140 305 -1524 208 -174
-44 -328 -149 -391 -268 -112 -210 -73 -444 103 -610 164 -156 379 -273 1025
-557 286 -125 429 -203 640 -346 324 -220 569 -532 654 -831 76 -265 76 -673
0 -971 -120 -474 -453 -851 -916 -1035 -340 -135 -704 -190 -1202 -179 -388 8
-636 39 -946 117 -261 66 -472 135 -586 194 l-61 31 176 473 c98 262 180 470
186 468 5 -3 61 -28 124 -56 491 -222 1156 -314 1596 -221 327 70 520 224 576
461 21 89 17 233 -9 315 -42 139 -119 227 -302 349 -165 110 -309 180 -815
398 -287 123 -483 225 -655 340 -164 109 -272 201 -378 320 -196 223 -303 441
-348 713 -26 152 -26 475 0 629 92 559 436 957 992 1149 158 55 388 101 604
121 107 9 662 -3 798 -18z m3162 -2881 l0 -2795 -550 0 -550 0 0 2795 0 2795
550 0 550 0 0 -2795z"/>
</g>
</svg>
